<svg width="176" height="48" viewBox="0 0 176 48" fill="none" xmlns="http://www.w3.org/2000/svg">
<path d="M38.41 5.85781C34.1603 2.08031 28.51 0 22.5 0C16.49 0 10.8397 2.08031 6.59004 5.85781C2.34035 9.63531 0 14.6578 0 20C0 25.3422 2.34044 30.3646 6.59004 34.1422C10.8396 37.9198 16.49 40 22.5 40C28.51 40 34.1603 37.9197 38.41 34.1422C42.6596 30.3647 45 25.3422 45 20C45 14.6578 42.6596 9.63539 38.41 5.85781Z" fill="#33CC95"/>
<g clip-path="url(#clip0)">
<path d="M23.1429 8V33.1429" stroke="white" stroke-width="2" stroke-linecap="round" stroke-linejoin="round"/>
<path d="M29.5714 12.5714H19.9286C18.7351 12.5714 17.5905 12.9929 16.7466 13.743C15.9027 14.4931 15.4286 15.5106 15.4286 16.5714C15.4286 17.6323 15.9027 18.6497 16.7466 19.3999C17.5905 20.15 18.7351 20.5714 19.9286 20.5714H26.3572C27.5506 20.5714 28.6952 20.9929 29.5391 21.743C30.3831 22.4932 30.8572 23.5106 30.8572 24.5714C30.8572 25.6323 30.3831 26.6497 29.5391 27.3999C28.6952 28.15 27.5506 28.5714 26.3572 28.5714H15.4286" stroke="white" stroke-width="2" stroke-linecap="round" stroke-linejoin="round"/>
</g>
<path d="M74.4875 10.55L69.6125 28H65.4875L62.2125 15.575L58.7875 28L54.6875 28.025L49.9875 10.55H53.7375L56.8125 24.1L60.3625 10.55H64.2625L67.6125 24.025L70.7125 10.55H74.4875ZM89.6479 20.775C89.6479 21.275 89.6145 21.725 89.5479 22.125H79.4229C79.5062 23.125 79.8562 23.9083 80.4729 24.475C81.0895 25.0417 81.8479 25.325 82.7479 25.325C84.0479 25.325 84.9729 24.7667 85.5229 23.65H89.2979C88.8979 24.9833 88.1312 26.0833 86.9979 26.95C85.8645 27.8 84.4729 28.225 82.8229 28.225C81.4895 28.225 80.2895 27.9333 79.2229 27.35C78.1729 26.75 77.3479 25.9083 76.7479 24.825C76.1645 23.7417 75.8729 22.4917 75.8729 21.075C75.8729 19.6417 76.1645 18.3833 76.7479 17.3C77.3312 16.2167 78.1479 15.3833 79.1979 14.8C80.2479 14.2167 81.4562 13.925 82.8229 13.925C84.1395 13.925 85.3145 14.2083 86.3479 14.775C87.3979 15.3417 88.2062 16.15 88.7729 17.2C89.3562 18.2333 89.6479 19.425 89.6479 20.775ZM86.0229 19.775C86.0062 18.875 85.6812 18.1583 85.0479 17.625C84.4145 17.075 83.6395 16.8 82.7229 16.8C81.8562 16.8 81.1229 17.0667 80.5229 17.6C79.9395 18.1167 79.5812 18.8417 79.4479 19.775H86.0229ZM111.228 10.55V28H107.728V16.65L103.053 28H100.403L95.7025 16.65V28H92.2025V10.55H96.1775L101.728 23.525L107.278 10.55H111.228ZM120.838 28.225C119.505 28.225 118.305 27.9333 117.238 27.35C116.171 26.75 115.33 25.9083 114.713 24.825C114.113 23.7417 113.813 22.4917 113.813 21.075C113.813 19.6583 114.121 18.4083 114.738 17.325C115.371 16.2417 116.23 15.4083 117.313 14.825C118.396 14.225 119.605 13.925 120.938 13.925C122.271 13.925 123.48 14.225 124.563 14.825C125.646 15.4083 126.496 16.2417 127.113 17.325C127.746 18.4083 128.063 19.6583 128.063 21.075C128.063 22.4917 127.738 23.7417 127.088 24.825C126.455 25.9083 125.588 26.75 124.488 27.35C123.405 27.9333 122.188 28.225 120.838 28.225ZM120.838 25.175C121.471 25.175 122.063 25.025 122.613 24.725C123.18 24.4083 123.63 23.9417 123.963 23.325C124.296 22.7083 124.463 21.9583 124.463 21.075C124.463 19.7583 124.113 18.75 123.413 18.05C122.73 17.3333 121.888 16.975 120.888 16.975C119.888 16.975 119.046 17.3333 118.363 18.05C117.696 18.75 117.363 19.7583 117.363 21.075C117.363 22.3917 117.688 23.4083 118.338 24.125C119.005 24.825 119.838 25.175 120.838 25.175ZM138.305 13.95C139.955 13.95 141.289 14.475 142.305 15.525C143.322 16.5583 143.83 18.0083 143.83 19.875V28H140.33V20.35C140.33 19.25 140.055 18.4083 139.505 17.825C138.955 17.225 138.205 16.925 137.255 16.925C136.289 16.925 135.522 17.225 134.955 17.825C134.405 18.4083 134.13 19.25 134.13 20.35V28H130.63V14.15H134.13V15.875C134.597 15.275 135.189 14.8083 135.905 14.475C136.639 14.125 137.439 13.95 138.305 13.95ZM160.034 20.775C160.034 21.275 160 21.725 159.934 22.125H149.809C149.892 23.125 150.242 23.9083 150.859 24.475C151.475 25.0417 152.234 25.325 153.134 25.325C154.434 25.325 155.359 24.7667 155.909 23.65H159.684C159.284 24.9833 158.517 26.0833 157.384 26.95C156.25 27.8 154.859 28.225 153.209 28.225C151.875 28.225 150.675 27.9333 149.609 27.35C148.559 26.75 147.734 25.9083 147.134 24.825C146.55 23.7417 146.259 22.4917 146.259 21.075C146.259 19.6417 146.55 18.3833 147.134 17.3C147.717 16.2167 148.534 15.3833 149.584 14.8C150.634 14.2167 151.842 13.925 153.209 13.925C154.525 13.925 155.7 14.2083 156.734 14.775C157.784 15.3417 158.592 16.15 159.159 17.2C159.742 18.2333 160.034 19.425 160.034 20.775ZM156.409 19.775C156.392 18.875 156.067 18.1583 155.434 17.625C154.8 17.075 154.025 16.8 153.109 16.8C152.242 16.8 151.509 17.0667 150.909 17.6C150.325 18.1167 149.967 18.8417 149.834 19.775H156.409ZM175.838 14.15L167.263 34.55H163.538L166.538 27.65L160.988 14.15H164.913L168.488 23.825L172.113 14.15H175.838Z" fill="white"/>
<defs>
<clipPath id="clip0">
<rect width="30.8571" height="27.4286" fill="white" transform="translate(7.71429 6.85714)"/>
</clipPath>
</defs>
</svg>
